<svg xmlns="http://www.w3.org/2000/svg" version="1.1" xmlns:xlink="http://www.w3.org/1999/xlink" xmlns:svgjs="http://svgjs.com/svgjs" width="512" height="512" x="0" y="0" viewBox="0 0 24 24" style="enable-background:new 0 0 512 512" xml:space="preserve" class=""><g><path d="M16 15a1 1 0 0 1-1 1h-2v2a1 1 0 0 1-2 0v-2H9a1 1 0 0 1 0-2h2v-2a1 1 0 0 1 2 0v2h2a1 1 0 0 1 1 1zm8-7v10a5.006 5.006 0 0 1-5 5H5a5.006 5.006 0 0 1-5-5V6a5.006 5.006 0 0 1 5-5h2.528a3.014 3.014 0 0 1 1.341.316L12.025 2.9a1.016 1.016 0 0 0 .447.1H19a5.006 5.006 0 0 1 5 5zM2 6v1h19.816A3 3 0 0 0 19 5h-6.528a3.014 3.014 0 0 1-1.341-.316L7.975 3.105A1.016 1.016 0 0 0 7.528 3H5a3 3 0 0 0-3 3zm20 12V9H2v9a3 3 0 0 0 3 3h14a3 3 0 0 0 3-3z" fill="#d0d0d0" data-original="#000000" class=""></path></g></svg>