<svg id="visual" viewBox="0 0 960 540" width="960" height="540" xmlns="http://www.w3.org/2000/svg" xmlns:xlink="http://www.w3.org/1999/xlink" version="1.1">
<g transform="translate(515.9658360433575 276.8116783368997)"><path id='second' d="M145.5 -119.5C167.4 -88.5 149.5 -29.2 129.1 17.2C108.7 63.6 85.8 97.1 51.4 118.1C16.9 139 -29.1 147.5 -83.4 135.7C-137.8 123.9 -200.5 92 -220.3 40.3C-240.1 -11.5 -217 -83.1 -173.1 -119.1C-129.3 -155.1 -64.6 -155.5 -1.4 -154.4C61.8 -153.3 123.5 -150.5 145.5 -119.5" fill="#B7B78A"></path></g>
<g transform="translate(477.72507604622047 241.45641670765895)"><path id='first' style='visibility: hidden' d="M137.7 -64C165.7 -31 166.9 33 139.4 80.7C112 128.3 56 159.7 3.8 157.5C-48.5 155.3 -97 119.7 -126.2 71C-155.5 22.3 -165.4 -39.5 -141.2 -70.4C-116.9 -101.3 -58.5 -101.3 -1.8 -100.2C54.8 -99.2 109.7 -97.1 137.7 -64" fill="#B7B78A"></path></g>
</svg>