<svg id="visual" viewBox="0 0 900 600" width="900" height="600" xmlns="http://www.w3.org/2000/svg" xmlns:xlink="http://www.w3.org/1999/xlink" version="1.1"><g><g transform="translate(817 496)"><path d="M67.9 -21.3C76.5 4.5 64.1 37.8 41.5 53.4C18.8 69 -14.1 66.8 -35.7 50.7C-57.4 34.6 -67.8 4.6 -60 -20.1C-52.1 -44.7 -26.1 -64.1 1.8 -64.7C29.6 -65.2 59.3 -47.1 67.9 -21.3Z" fill="none" stroke="#B7B78A" stroke-width="20"></path></g><g transform="translate(222 476)"><path d="M18.6 -6.4C21.3 2.4 18.9 12.5 12.4 17.2C5.9 22 -4.6 21.4 -12.3 16C-20 10.6 -24.9 0.5 -22.4 -8C-19.9 -16.5 -9.9 -23.3 -1 -22.9C7.9 -22.6 15.8 -15.2 18.6 -6.4Z" fill="none" stroke="#B7B78A" stroke-width="20"></path></g><g transform="translate(204 242)"><path d="M39.6 -14.5C44.8 3.1 37.9 22.9 23.8 33.3C9.7 43.7 -11.8 44.7 -24.7 35C-37.7 25.4 -42.3 5.1 -36.7 -13C-31.2 -31.1 -15.6 -46.9 0.8 -47.2C17.2 -47.5 34.4 -32.1 39.6 -14.5Z" fill="none" stroke="#B7B78A" stroke-width="20"></path></g><g transform="translate(833 257)"><path d="M69.3 -21.1C78.3 5.2 66.2 39.9 43.3 55.6C20.4 71.3 -13.4 68.1 -36.7 51.1C-60 34 -72.8 3.1 -64.9 -21.6C-57.1 -46.4 -28.5 -64.9 0.8 -65.1C30.1 -65.4 60.3 -47.4 69.3 -21.1Z" stroke="#B7B78A" fill="none" stroke-width="20"></path></g><g transform="translate(650 23)"><path d="M26.8 -9.7C30.5 2.4 26.1 16.2 16 24C5.8 31.8 -10 33.7 -19.1 27C-28.2 20.2 -30.5 4.8 -26.1 -8.3C-21.8 -21.4 -10.9 -32.1 0.3 -32.2C11.6 -32.4 23.2 -21.8 26.8 -9.7Z" stroke="#B7B78A" fill="none" stroke-width="20"></path></g><g transform="translate(90 33)"><path d="M64.2 -22.1C72.8 5.6 62.2 38.4 40.2 54.1C18.2 69.8 -15.3 68.5 -37.3 52.3C-59.3 36.1 -69.7 5 -61.6 -22.1C-53.5 -49.2 -26.7 -72.4 0.5 -72.5C27.8 -72.7 55.6 -49.9 64.2 -22.1Z" stroke="#B7B78A" fill="none" stroke-width="20"></path></g><g transform="translate(604 589)"><path d="M41.4 -14.7C46.7 2.8 39.2 23.1 23.9 34.6C8.7 46.1 -14.3 48.7 -30.3 37.9C-46.3 27.2 -55.3 3.1 -49.1 -15.6C-42.9 -34.4 -21.5 -47.8 -1.7 -47.3C18.1 -46.7 36.2 -32.2 41.4 -14.7Z" stroke="#B7B78A" fill="none" stroke-width="20"></path></g><g transform="translate(630 360)"><path d="M9.5 -3.1C10.7 0.4 8.7 4.8 5.4 7.1C2.1 9.5 -2.5 9.6 -5.7 7.4C-9 5.1 -10.9 0.5 -9.7 -3.1C-8.5 -6.6 -4.2 -9.1 0 -9.1C4.2 -9.1 8.4 -6.6 9.5 -3.1Z" stroke="#B7B78A" fill="none" stroke-width="20"></path></g><g transform="translate(2 383)"><path d="M62.4 -23.1C70.1 3.5 58.3 33.7 35.6 50.6C12.9 67.5 -20.7 71.1 -40.3 56.5C-60 42 -65.8 9.4 -56.7 -19C-47.7 -47.4 -23.8 -71.6 1.7 -72.2C27.3 -72.8 54.7 -49.7 62.4 -23.1Z" stroke="#B7B78A" fill="none" stroke-width="20"></path></g><g transform="translate(416 62)"><path d="M43.5 -13.9C49.4 4.2 42.6 26.8 27.7 37.4C12.8 48.1 -10.1 46.8 -24 36C-37.9 25.2 -42.7 4.9 -37.2 -12.6C-31.7 -30.1 -15.8 -44.8 1.5 -45.3C18.7 -45.8 37.5 -32 43.5 -13.9Z" stroke="#B7B78A" fill="none" stroke-width="20"></path></g><g transform="translate(404 339)"><path d="M14.7 -4.1C16.9 2 15.1 10.1 9.6 14.3C4.2 18.5 -4.8 18.7 -10 14.7C-15.3 10.7 -16.7 2.4 -14.4 -3.8C-12.1 -10.1 -6 -14.3 0.1 -14.4C6.3 -14.4 12.5 -10.2 14.7 -4.1Z" stroke="#B7B78A" fill="none" stroke-width="20"></path></g><g transform="translate(888 3)"><path d="M29.5 -10.9C32.8 0.7 26.4 14.1 16.4 21C6.4 27.9 -7.2 28.3 -17.2 21.6C-27.2 14.8 -33.6 0.9 -30.1 -10.9C-26.6 -22.7 -13.3 -32.5 -0.1 -32.4C13.1 -32.4 26.2 -22.6 29.5 -10.9Z" stroke="#B7B78A" fill="none" stroke-width="20"></path></g></g></svg>